<svg width="192" height="192" viewBox="0 0 192 192" fill="none" xmlns="http://www.w3.org/2000/svg">
  <rect width="192" height="192" rx="48" fill="#9D7AD9"/>
  <path d="M52 98C52 87.5066 60.5066 79 71 79H121C131.493 79 140 87.5066 140 98V128C140 138.493 131.493 147 121 147H71C60.5066 147 52 138.493 52 128V98Z" fill="white"/>
  <path d="M96 45C108.15 45 118 54.8497 118 67C118 79.1503 108.15 89 96 89C83.8497 89 74 79.1503 74 67C74 54.8497 83.8497 45 96 45Z" fill="white"/>
  <path d="M86 117L106 117" stroke="#9D7AD9" stroke-width="8" stroke-linecap="round"/>
  <path d="M86 129L106 129" stroke="#9D7AD9" stroke-width="8" stroke-linecap="round"/>
</svg>