<svg width="512" height="512" viewBox="0 0 512 512" fill="none" xmlns="http://www.w3.org/2000/svg">
  <rect width="512" height="512" rx="128" fill="#9D7AD9"/>
  <path d="M138.667 261.333C138.667 233.351 161.351 210.667 189.333 210.667H322.667C350.649 210.667 373.333 233.351 373.333 261.333V341.333C373.333 369.315 350.649 392 322.667 392H189.333C161.351 392 138.667 369.315 138.667 341.333V261.333Z" fill="white"/>
  <path d="M256 120C288.401 120 314.667 146.266 314.667 178.667C314.667 211.068 288.401 237.333 256 237.333C223.599 237.333 197.333 211.068 197.333 178.667C197.333 146.266 223.599 120 256 120Z" fill="white"/>
  <path d="M229.333 312L282.667 312" stroke="#9D7AD9" stroke-width="21.3333" stroke-linecap="round"/>
  <path d="M229.333 344L282.667 344" stroke="#9D7AD9" stroke-width="21.3333" stroke-linecap="round"/>
</svg>